<svg width="20" height="10" viewBox="0 0 20 10" fill="none" xmlns="http://www.w3.org/2000/svg">
<path fill-rule="evenodd" clip-rule="evenodd" d="M9.93054 9.89469H11.0613C11.0613 9.89469 11.4029 9.86004 11.5773 9.68834C11.7381 9.5303 11.7329 9.23417 11.7329 9.23417C11.7329 9.23417 11.7111 7.84643 12.4148 7.64218C13.1088 7.44056 14.0002 8.98319 14.945 9.57651C15.6591 10.0254 16.2021 9.92672 16.2021 9.92672L18.7282 9.89469C18.7282 9.89469 20.0496 9.82013 19.4228 8.86977C19.3717 8.79207 19.0577 8.16672 17.5447 6.8819C15.9604 5.53722 16.1728 5.75459 18.0808 3.42858C19.2426 2.01196 19.7075 1.14719 19.5623 0.776496C19.4239 0.423656 18.5692 0.516592 18.5692 0.516592L15.7251 0.532868C15.7251 0.532868 15.5138 0.506615 15.3577 0.5922C15.205 0.675685 15.1069 0.871007 15.1069 0.871007C15.1069 0.871007 14.6563 1.96733 14.0565 2.89984C12.7902 4.86672 12.2834 4.9712 12.0767 4.84886C11.5951 4.56428 11.7157 3.70528 11.7157 3.09516C11.7157 1.18867 12.032 0.393727 11.0998 0.187904C10.791 0.119646 10.5631 0.0744907 9.77212 0.0671399C8.75728 0.0576888 7.89858 0.0697652 7.41183 0.287665C7.08809 0.432582 6.8384 0.755494 6.99051 0.774396C7.17878 0.797499 7.60412 0.879408 7.8297 1.16032C8.12129 1.52313 8.11096 2.3375 8.11096 2.3375C8.11096 2.3375 8.27857 4.58161 7.72006 4.86042C7.33663 5.05154 6.81085 4.66142 5.68179 2.87674C5.1032 1.96261 4.66638 0.951867 4.66638 0.951867C4.66638 0.951867 4.58258 0.76337 4.43219 0.662033C4.24966 0.539694 3.99538 0.50084 3.99538 0.50084L1.29241 0.517117C1.29241 0.517117 0.886589 0.527618 0.737923 0.688811C0.605329 0.832678 0.727017 1.12934 0.727017 1.12934C0.727017 1.12934 2.84278 5.65746 5.23866 7.93937C7.43651 10.0323 9.93054 9.89469 9.93054 9.89469Z" fill="white"/>
</svg>
