<svg width="17" height="17" viewBox="0 0 17 17" fill="none" xmlns="http://www.w3.org/2000/svg">
<path d="M4.83854 17H12.1615C14.8291 17 17 14.8296 17 12.1613V4.83813C17 2.17039 14.8291 0 12.1615 0H4.83854C2.17088 0 0 2.17039 0 4.83813V12.1613C0 14.8296 2.17088 17 4.83854 17ZM1.45703 4.83813C1.45703 2.97393 2.97383 1.45708 4.83854 1.45708H12.1615C14.0262 1.45708 15.543 2.97393 15.543 4.83813V12.1613C15.543 14.0261 14.0262 15.5429 12.1615 15.5429H4.83854C2.97439 15.5429 1.45703 14.0261 1.45703 12.1613V4.83813Z" fill="white"/>
<path d="M8.4997 12.8532C10.8995 12.8532 12.8522 10.9005 12.8522 8.50058C12.8522 6.10068 10.8995 4.14795 8.4997 4.14795C6.09932 4.14795 4.14722 6.10068 4.14722 8.50058C4.14722 10.9005 6.09989 12.8532 8.4997 12.8532ZM8.4997 5.60446C10.0966 5.60446 11.3952 6.90365 11.3952 8.50001C11.3952 10.0964 10.0966 11.3956 8.4997 11.3956C6.90283 11.3956 5.60425 10.0964 5.60425 8.50001C5.60425 6.90365 6.90339 5.60446 8.4997 5.60446Z" fill="white"/>
<path d="M13.0394 4.94431C13.6171 4.94431 14.0854 4.47599 14.0854 3.8983C14.0854 3.32061 13.6171 2.85229 13.0394 2.85229C12.4617 2.85229 11.9934 3.32061 11.9934 3.8983C11.9934 4.47599 12.4617 4.94431 13.0394 4.94431Z" fill="white"/>
</svg>
